
        <svg xmlns="http://www.w3.org/2000/svg" xmlns:xlink="http://www.w3.org/1999/xlink" version="1.1" width="3206.896551724138" 
        height="2491.362584311383" viewBox="0 0 3206.896551724138 2491.362584311383">
			<rect fill="#0d0d0d" width="3206.896551724138" height="2491.362584311383"/>
			<g transform="scale(10.344827586206897) translate(10, 10)">
				<defs id="SvgjsDefs3403"><linearGradient id="SvgjsLinearGradient3412"><stop id="SvgjsStop3413" stop-color="#8f5e25" offset="0"></stop><stop id="SvgjsStop3414" stop-color="#fbf4a1" offset="0.5"></stop><stop id="SvgjsStop3415" stop-color="#8f5e25" offset="1"></stop></linearGradient><linearGradient id="SvgjsLinearGradient3416"><stop id="SvgjsStop3417" stop-color="#8f5e25" offset="0"></stop><stop id="SvgjsStop3418" stop-color="#fbf4a1" offset="0.5"></stop><stop id="SvgjsStop3419" stop-color="#8f5e25" offset="1"></stop></linearGradient><linearGradient id="SvgjsLinearGradient3420"><stop id="SvgjsStop3421" stop-color="#8f5e25" offset="0"></stop><stop id="SvgjsStop3422" stop-color="#fbf4a1" offset="0.5"></stop><stop id="SvgjsStop3423" stop-color="#8f5e25" offset="1"></stop></linearGradient><linearGradient id="SvgjsLinearGradient3424"><stop id="SvgjsStop3425" stop-color="#8f5e25" offset="0"></stop><stop id="SvgjsStop3426" stop-color="#fbf4a1" offset="0.5"></stop><stop id="SvgjsStop3427" stop-color="#8f5e25" offset="1"></stop></linearGradient></defs><g id="SvgjsG3404" featureKey="symbolContainer" transform="matrix(0.701218919352487,0,0,0.701218919352487,75,0)" fill="url(#SvgjsLinearGradient3412)"><path xmlns="http://www.w3.org/2000/svg" d="M100.254 0C44.974 0 0 44.974 0 100.254s44.974 100.254 100.254 100.254c55.28 0 100.254-44.974 100.254-100.254S155.534 0 100.254 0zm0 195.508C47.731 195.508 5 152.777 5 100.254S47.731 5 100.254 5s95.254 42.73 95.254 95.254-42.731 95.254-95.254 95.254z"></path></g><g id="SvgjsG3405" featureKey="monogramFeature-0" transform="matrix(1.768421052631579,0,0,1.768421052631579,105.50273630242599,2.0535612407483548)" fill="url(#SvgjsLinearGradient3416)"><path d="M40.43 60 l-13.242 0 l-11.221 -18.457 l0 18.457 l-11.162 0 l0 -43.066 l16.494 0 c10.313 0 14.414 5.918 14.414 13.301 c0 6.0645 -3.5742 9.6094 -8.7305 10.723 z M25.078 30.352 c0 -2.6367 -1.4941 -4.3066 -5.625 -4.3066 l-3.4863 0 l0 8.6426 l3.4863 0 c4.1309 0 5.625 -1.6992 5.625 -4.3359 z"></path></g><g id="SvgjsG3406" featureKey="nameFeature-0" transform="matrix(0.5882352941176471,0,0,0.5882352941176471,-1.8823528289794922,154.17647148581113)" fill="url(#SvgjsLinearGradient3420)"><path d="M23.92 22.2 c0 4.56 -1.96 8.24 -6 9.6 l5.76 8.2 l-5.16 0 l-5.36 -7.6 l-5.64 0 l0 7.6 l-4.32 0 l0 -28 l10.88 0 c6.64 0 9.84 4.36 9.84 10.2 z M7.52 16.08 l0 12.24 l6.44 0 c4.04 0 5.64 -2.88 5.64 -6.12 s-1.6 -6.12 -5.64 -6.12 l-6.44 0 z M52.696 35.84 l0.28 4.16 l-17.16 0 l0 -28 l16.36 0 l0.32 4.16 l-12.36 0 l0 5.96 l8.16 0 l0 4.16 l-8.16 0 l0 9.56 l12.56 0 z M62.87200000000001 37.12 c1.68 1.56 5.44 3.28 9.16 3.28 c5.76 0 9.28 -2.84 9.28 -7.48 c0 -3.84 -1.92 -6.12 -7.56 -9.44 c-4.4 -2.6 -5.44 -3.36 -5.44 -4.88 c0 -1.6 1.44 -2.84 4.16 -2.84 c1.52 0 3.76 0.68 5 1.52 l2.32 -3.52 c-1.84 -1.24 -5 -2.16 -7.28 -2.16 c-5.32 0 -8.8 3.04 -8.8 7.04 c0 3.52 1.68 5.28 6.88 8.16 c4.2 2.32 6.12 4.28 6.12 6.04 c0 2.16 -1.72 3.24 -4.68 3.24 c-2.8 0 -5.44 -1.32 -6.68 -2.44 z M110.528 16.16 l-7.88 0 l0 23.84 l-4.32 0 l0 -23.84 l-7.92 0 l0.28 -4.16 l19.56 0 z M138.904 40 l-2.2 -5.12 l-11.44 0 l-2.2 5.12 l-4.64 0 l12.32 -28.4 l0.48 0 l12.32 28.4 l-4.64 0 z M126.98400000000001 30.880000000000003 l8 0 l-4 -9.28 z M153.64 28.880000000000003 l0 -16.88 l4.28 0 l0 16.56 c0 4.88 2.92 7.48 6.92 7.48 s6.92 -2.6 6.92 -7.48 l0 -16.56 l4.28 0 l0 16.88 c0 7.28 -4.28 11.52 -11.2 11.52 s-11.2 -4.24 -11.2 -11.52 z M209.656 22.2 c0 4.56 -1.96 8.24 -6 9.6 l5.76 8.2 l-5.16 0 l-5.36 -7.6 l-5.64 0 l0 7.6 l-4.32 0 l0 -28 l10.88 0 c6.64 0 9.84 4.36 9.84 10.2 z M193.256 16.08 l0 12.24 l6.44 0 c4.04 0 5.64 -2.88 5.64 -6.12 s-1.6 -6.12 -5.64 -6.12 l-6.44 0 z M239.23199999999997 40 l-2.2 -5.12 l-11.44 0 l-2.2 5.12 l-4.64 0 l12.32 -28.4 l0.48 0 l12.32 28.4 l-4.64 0 z M227.31199999999998 30.880000000000003 l8 0 l-4 -9.28 z M272.92799999999994 12 l4.32 0 l0 28.4 l-0.48 0 l-18.28 -18.36 l0 17.96 l-4.32 0 l0 -28.4 l0.48 0 l18.28 18.36 l0 -17.96 z M308.06399999999996 16.16 l-7.88 0 l0 23.84 l-4.32 0 l0 -23.84 l-7.92 0 l0.28 -4.16 l19.56 0 z M323.0799999999999 35.84 l11.4 0 l-0.28 4.16 l-15.44 0 l0 -28 l4.32 0 l0 23.84 z M358.4959999999999 40.4 c-8 0 -14.44 -6.4 -14.44 -14.4 s6.44 -14.4 14.44 -14.4 s14.44 6.4 14.44 14.4 s-6.44 14.4 -14.44 14.4 z M358.4959999999999 36.24 c5.76 0 9.96 -4.36 9.96 -10.24 s-4.2 -10.24 -9.96 -10.24 s-9.96 4.36 -9.96 10.24 s4.2 10.24 9.96 10.24 z M382.51199999999994 12 l4.72 0 l7.72 18.84 l7.72 -18.84 l4.72 0 l-12.2 28.4 l-0.48 0 z M434.9679999999999 35.84 l0.28 4.16 l-17.16 0 l0 -28 l16.36 0 l0.32 4.16 l-12.36 0 l0 5.96 l8.16 0 l0 4.16 l-8.16 0 l0 9.56 l12.56 0 z M467.46399999999994 22.2 c0 4.56 -1.96 8.24 -6 9.6 l5.76 8.2 l-5.16 0 l-5.36 -7.6 l-5.64 0 l0 7.6 l-4.32 0 l0 -28 l10.88 0 c6.64 0 9.84 4.36 9.84 10.2 z M451.0639999999999 16.08 l0 12.24 l6.44 0 c4.04 0 5.64 -2.88 5.64 -6.12 s-1.6 -6.12 -5.64 -6.12 l-6.44 0 z M477.75999999999993 37.12 c1.68 1.56 5.44 3.28 9.16 3.28 c5.76 0 9.28 -2.84 9.28 -7.48 c0 -3.84 -1.92 -6.12 -7.56 -9.44 c-4.4 -2.6 -5.44 -3.36 -5.44 -4.88 c0 -1.6 1.44 -2.84 4.16 -2.84 c1.52 0 3.76 0.68 5 1.52 l2.32 -3.52 c-1.84 -1.24 -5 -2.16 -7.28 -2.16 c-5.32 0 -8.8 3.04 -8.8 7.04 c0 3.52 1.68 5.28 6.88 8.16 c4.2 2.32 6.12 4.28 6.12 6.04 c0 2.16 -1.72 3.24 -4.68 3.24 c-2.8 0 -5.44 -1.32 -6.68 -2.44 z"></path></g><g id="SvgjsG3407" featureKey="sloganFeature-0" transform="matrix(2.2701236512107332,0,0,2.2701236512107332,31.324690871973168,176.47350259033288)" fill="url(#SvgjsLinearGradient3424)"><path d="M2.5 18.7 l0 -10.64 c0 -0.46 0.36 -0.7 0.7 -0.7 l4.6 0 c0.44 0 0.66 0.32 0.66 0.66 s-0.22 0.68 -0.66 0.68 l-3.96 0 l0 3.88 l3.14 0 c0.46 0 0.68 0.32 0.68 0.66 s-0.24 0.7 -0.68 0.7 l-3.14 0 l0 4.14 l3.96 0 c0.42 0 0.64 0.34 0.64 0.66 c0 0.34 -0.22 0.66 -0.64 0.66 l-4.6 0 c-0.34 0 -0.7 -0.12 -0.7 -0.7 z M21.167 18.86 l-0.78 -2.54 l-3.72 0 l-0.74 2.5 c-0.26 0.86 -1.58 0.6 -1.3 -0.28 c1.04 -3.5 2.06 -7.06 3.08 -10.6 c0.12 -0.38 0.44 -0.58 0.76 -0.58 c0.3 0 0.62 0.2 0.74 0.58 l3.18 10.6 c0.22 0.76 -0.96 1.18 -1.22 0.32 z M18.506999999999998 10.06 l-1.44 4.92 l2.94 0 c-0.5 -1.68 -0.96 -3.12 -1.5 -4.92 z M28.714 7.359999999999999 l6.04 0 c0.42 0 0.62 0.34 0.62 0.68 s-0.2 0.66 -0.62 0.66 l-2.28 0 l0 10.06 c0 0.42 -0.34 0.64 -0.68 0.64 s-0.66 -0.22 -0.66 -0.64 l0 -10.06 l-2.42 0 c-0.42 0 -0.62 -0.32 -0.62 -0.66 s0.2 -0.68 0.62 -0.68 z M51.548 18.72 l0 -10.72 c0 -0.32 0.16 -0.64 0.6 -0.64 l2.62 0 c1.98 0 3.06 0.72 3.06 2.72 c0 0.8 -0.1 1.58 -0.6 2.12 c1.14 0.8 1.34 2.18 1.34 3.58 c0 2.46 -1.34 3.62 -3.64 3.62 l-2.68 0 c-0.34 0 -0.7 -0.12 -0.7 -0.68 z M52.888000000000005 18.08 l1.74 0 c1.66 0 2.58 -0.68 2.58 -2.3 c0 -1.66 -0.42 -2.78 -2.04 -2.78 l-2.28 0 l0 5.08 z M56.508 10.08 c0 -1.2 -0.84 -1.38 -1.74 -1.38 l-1.88 0 l0 2.96 l1.84 0 c1.26 0 1.78 -0.36 1.78 -1.58 z M65.295 18.7 l0 -10.64 c0 -0.46 0.36 -0.7 0.7 -0.7 l4.6 0 c0.44 0 0.66 0.32 0.66 0.66 s-0.22 0.68 -0.66 0.68 l-3.96 0 l0 3.88 l3.14 0 c0.46 0 0.68 0.32 0.68 0.66 s-0.24 0.7 -0.68 0.7 l-3.14 0 l0 4.14 l3.96 0 c0.42 0 0.64 0.34 0.64 0.66 c0 0.34 -0.22 0.66 -0.64 0.66 l-4.6 0 c-0.34 0 -0.7 -0.12 -0.7 -0.7 z M77.822 17.68 c-0.44 -0.82 0.68 -1.42 1.2 -0.6 c0.26 0.42 1.04 1.14 2.28 1.14 c0.52 0 1.82 -0.38 2 -1.86 c0.12 -0.9 -0.74 -1.78 -2.22 -2.52 c-2.08 -0.98 -3.66 -1.84 -3.66 -3.56 c0 -2.04 1.72 -3 3.56 -3 c1.66 0 2.58 1.02 2.9 1.54 c0.46 0.74 -0.54 1.46 -1.1 0.74 c-0.28 -0.36 -0.82 -0.96 -1.8 -0.96 c-1.1 0 -2.24 0.52 -2.24 1.68 c0 0.92 1.02 1.44 2.54 2.16 c1.78 0.88 3.64 1.74 3.36 4.08 c-0.22 1.84 -1.62 3.02 -3.34 3.02 c-1.3 0 -2.9 -0.7 -3.48 -1.86 z M90.989 7.359999999999999 l6.04 0 c0.42 0 0.62 0.34 0.62 0.68 s-0.2 0.66 -0.62 0.66 l-2.28 0 l0 10.06 c0 0.42 -0.34 0.64 -0.68 0.64 s-0.66 -0.22 -0.66 -0.64 l0 -10.06 l-2.42 0 c-0.42 0 -0.62 -0.32 -0.62 -0.66 s0.2 -0.68 0.62 -0.68 z"></path></g>
			</g>
		</svg>
	